<?xml version="1.0" standalone="no"?>
<!DOCTYPE svg PUBLIC "-//W3C//DTD SVG 20010904//EN"
 "http://www.w3.org/TR/2001/REC-SVG-20010904/DTD/svg10.dtd">
<svg version="1.0" xmlns="http://www.w3.org/2000/svg"
 width="700.000000pt" height="700.000000pt" viewBox="0 0 700.000000 700.000000"
 preserveAspectRatio="xMidYMid meet">
<g transform="translate(0.000000,700.000000) scale(0.100000,-0.100000)"
fill="#be4bdb" stroke="none">
<path d="M714 6936 c-333 -87 -585 -357 -659 -709 -22 -103 -22 -5351 0 -5454
76 -359 330 -626 681 -715 l89 -23 2675 0 2675 0 89 23 c350 89 605 357 681
715 13 59 15 442 15 2727 0 2285 -2 2668 -15 2727 -50 239 -190 452 -382 584
-71 49 -203 107 -294 129 -83 20 -112 20 -2774 19 l-2690 0 -91 -23z m2869
-1106 c52 -38 503 -545 557 -627 151 -228 171 -511 56 -775 l-16 -38 532 0
c293 0 577 -5 632 -10 141 -14 244 -43 381 -110 301 -146 508 -407 592 -747
15 -62 17 -190 20 -1352 l4 -1285 -26 -52 c-16 -33 -40 -62 -67 -80 l-41 -29
-2724 -3 c-2682 -2 -2724 -2 -2762 17 -50 26 -97 81 -110 128 -14 50 -15 2423
-1 2543 15 130 46 234 104 355 152 310 409 514 756 597 80 20 123 21 688 25
331 3 602 6 602 8 0 1 -11 27 -24 56 -44 102 -60 185 -60 319 0 141 20 233 75
343 51 101 81 139 325 412 249 279 263 294 309 319 46 25 153 18 198 -14z"/>
<path d="M3308 5155 c-159 -178 -190 -225 -209 -317 -35 -160 57 -340 211
-416 49 -24 66 -27 160 -27 96 0 110 3 165 29 76 38 143 105 181 181 26 54 29
70 29 161 0 96 -2 104 -35 167 -23 44 -86 124 -183 232 -82 91 -152 165 -156
165 -4 0 -77 -79 -163 -175z"/>
<path d="M1605 3959 c-262 -38 -485 -234 -561 -494 -15 -51 -18 -116 -21 -452
l-4 -392 37 -7 c21 -4 77 -2 123 4 158 21 251 82 398 260 130 157 310 264 515
306 101 21 295 21 396 0 229 -47 394 -157 596 -398 116 -138 310 -201 496
-162 144 31 191 65 389 284 123 138 301 239 483 276 98 20 304 21 395 1 224
-47 400 -156 546 -338 82 -102 142 -152 230 -192 63 -29 205 -51 260 -41 l38
7 -3 397 c-4 382 -5 400 -27 467 -56 171 -185 324 -337 403 -162 83 18 76
-2049 78 -1012 1 -1867 -2 -1900 -7z"/>
<path d="M2130 2761 c-120 -39 -153 -65 -330 -261 -92 -103 -168 -160 -285
-216 -118 -56 -232 -83 -375 -89 l-115 -5 -3 -525 -2 -525 2450 0 2450 0 0
529 0 529 -43 -5 c-68 -8 -237 14 -329 43 -98 30 -207 87 -286 148 -55 42 -95
83 -229 233 -102 115 -214 163 -384 163 -186 0 -297 -57 -431 -222 -171 -211
-377 -327 -638 -359 -315 -38 -642 92 -832 331 -111 140 -182 195 -296 230
-84 26 -243 27 -322 1z"/>
</g>
</svg>
